<?xml version="1.0" encoding="utf-8"?>
<!-- Generator: Adobe Illustrator 19.2.1, SVG Export Plug-In . SVG Version: 6.00 Build 0)  -->
<svg version="1.1" id="layer" xmlns="http://www.w3.org/2000/svg" xmlns:xlink="http://www.w3.org/1999/xlink" x="0px" y="0px"
	 viewBox="0 0 652 652" style="enable-background:new 0 0 652 652;" xml:space="preserve">
<style type="text/css">
	.st0{fill:#231815;}
	.st1{fill:#FFFFFF;}
	.st2{fill:#FCDE00;}
</style>
<g>
	<path class="st0" d="M680.5,528.7c0,23.8-19.4,43.2-43.2,43.2H3.3c-23.8,0-43.2-19.3-43.2-43.2V115.2c0-23.9,19.4-43.3,43.2-43.3
		h634c23.8,0,43.2,19.4,43.2,43.3"/>
	<polyline class="st1" points="79.3,278.5 183.4,464.6 135.1,464.6 43.2,285.5 42,285.5 42,464.6 -0.9,464.6 -0.9,109.3 42,109.3 
		42,270.4 43.2,270.4 135.1,109.3 182.8,109.3 	"/>
	<path class="st1" d="M194.4,464.6V109.3h46c64.3,0,126.2,3.7,126.2,90.4c0,45.3-12.8,89.5-87,91.4l102.3,173.4h-45.3l-98.1-173.8
		h-1.2v173.8 M237.3,263.8h15.3c60,0,69.8-16,69.8-62.6c0-56.1-22-61.7-76.6-61.7h-8.6V263.8z"/>
	<polyline class="st1" points="473.8,278.5 577.9,464.6 529.5,464.6 437.6,285.5 436.4,285.5 436.4,464.6 393.5,464.6 393.5,109.3 
		436.4,109.3 436.4,270.4 437.6,270.4 529.5,109.3 577.3,109.3 	"/>
	<path class="st1" d="M16.5,514.7c-1.4-1.8-3.1-2.9-5.4-2.9c-2.2,0-4.4,1.7-4.4,4.1c0,6,14.3,3.5,14.3,15.5
		c0,7.2-4.5,12.3-11.8,12.3c-5,0-8.6-2.8-11-7l4.5-4.4c1,2.8,3.5,5.2,6.5,5.2c2.9,0,4.6-2.4,4.6-5.2c0-3.7-3.4-4.8-6.2-5.9
		c-4.6-1.9-8-4.2-8-9.8c0-6,4.4-10.8,10.4-10.8c3.2,0,7.6,1.5,9.8,4"/>
	<polyline class="st1" points="97,506.8 105.1,506.8 111.4,519.2 118.2,506.8 126.4,506.8 115.1,526.2 115.1,542.7 108.1,542.7 
		108.1,526.2 	"/>
	<path class="st1" d="M220.8,514.7c-1.4-1.8-3-2.9-5.4-2.9c-2.2,0-4.4,1.7-4.4,4.1c0,6,14.3,3.5,14.3,15.5c0,7.2-4.5,12.3-11.8,12.3
		c-5,0-8.6-2.8-11-7l4.5-4.4c0.9,2.8,3.5,5.2,6.5,5.2c2.8,0,4.6-2.4,4.6-5.2c0-3.7-3.5-4.8-6.3-5.9c-4.6-1.9-8-4.2-8-9.8
		c0-6,4.4-10.8,10.5-10.8c3.2,0,7.6,1.5,9.7,4"/>
	<polyline class="st1" points="316.3,542.7 309.3,542.7 309.3,512.9 302.1,512.9 302.1,506.8 323.6,506.8 323.6,512.9 316.3,512.9 	
		"/>
	<polyline class="st1" points="408.8,512.9 408.8,520.8 419.9,520.8 419.9,526.9 408.8,526.9 408.8,536.6 420.3,536.6 420.3,542.7 
		401.8,542.7 401.8,506.8 420.3,506.8 420.3,512.9 	"/>
	<polyline class="st1" points="527.5,520.4 527.4,520.4 519.2,543.1 516.9,543.1 509,520.4 508.9,520.4 505.7,542.7 498.6,542.7 
		504.7,505.8 509.6,505.8 518.5,529.5 526.9,505.8 532,505.8 537.4,542.7 530.3,542.7 	"/>
	<path class="st1" d="M633.1,514.7c-1.3-1.8-3-2.9-5.4-2.9c-2.2,0-4.3,1.7-4.3,4.1c0,6,14.2,3.5,14.2,15.5c0,7.2-4.5,12.3-11.8,12.3
		c-4.9,0-8.6-2.8-11-7l4.5-4.4c0.9,2.8,3.5,5.2,6.5,5.2c2.8,0,4.6-2.4,4.6-5.2c0-3.7-3.5-4.8-6.3-5.9c-4.6-1.9-8-4.2-8-9.8
		c0-6,4.5-10.8,10.5-10.8c3.2,0,7.6,1.5,9.8,4"/>
	<polyline class="st2" points="528.2,282.1 638,463.8 638,109.5 	"/>
</g>
</svg>
